<svg width="97" height="13" viewBox="0 0 97 13" fill="none" xmlns="http://www.w3.org/2000/svg">
<path d="M19.6048 5.61247L16.9423 12.5575H14.1115L11.0359 3.66609L7.9603 12.5575H5.12952L0.584961 0.56958H3.69117L6.61377 9.26931L9.65877 0.56958H12.4589L15.5039 9.2988L17.0188 5.02266C17.585 3.23848 17.9216 1.86717 17.6462 0.584325H20.4463C20.783 1.97038 20.3698 3.54813 19.6048 5.61247Z" fill="#00004F"/>
<path d="M35.5947 7.55894H25.2968C25.6946 9.29888 27.1789 10.449 29.1222 10.449C30.5605 10.449 31.7999 9.81497 32.4426 8.90076H35.4723C34.4777 11.26 32.0294 12.823 29.0763 12.823C25.2203 12.823 22.3589 10.1246 22.3589 6.54151C22.3589 2.97315 25.2203 0.26001 28.9997 0.26001C32.8098 0.26001 35.6559 2.9584 35.6559 6.55625C35.6712 6.83641 35.6406 7.27877 35.5947 7.55894ZM25.3121 5.40612H32.7027C32.2743 3.75465 30.8053 2.64875 28.9997 2.64875C27.1942 2.64875 25.7864 3.75465 25.3121 5.40612Z" fill="#00004F"/>
<path d="M55.5633 5.61247L52.9008 12.5575H50.07L46.9944 3.66609L43.9188 12.5575H41.088L36.5435 0.56958H39.6497L42.5723 9.26931L45.6173 0.56958H48.4174L51.4624 9.2988L52.9773 5.02266C53.5435 3.23848 53.8801 1.86717 53.6047 0.584325H56.4048C56.7262 1.97038 56.313 3.54813 55.5633 5.61247Z" fill="#00004F"/>
<path d="M72.9612 10.0067V12.5428H72.1809C70.4212 12.5428 69.3195 11.8351 68.9829 10.5227C67.9883 11.9383 66.3969 12.823 64.4995 12.823C60.9802 12.823 58.3789 10.1246 58.3789 6.54151C58.3789 2.97315 60.9955 0.26001 64.4995 0.26001C66.3357 0.26001 67.8658 1.08575 68.8757 2.39808V0.554916H71.6147V8.90076C71.6147 9.57904 72.0279 10.0067 72.7623 10.0067H72.9612ZM68.8604 6.55625C68.8604 4.43293 67.2232 2.81095 65.0351 2.81095C62.8163 2.81095 61.1791 4.43293 61.1791 6.55625C61.1791 8.67958 62.8163 10.3016 65.0351 10.3016C67.2232 10.2868 68.8604 8.66483 68.8604 6.55625Z" fill="#00004F"/>
<path d="M82.387 0.363281V3.06167C79.7552 3.06167 78.2097 4.49197 78.2097 6.70376V12.5429H75.4707V0.554971H78.2097V2.56033C79.189 1.18902 80.6274 0.363281 82.387 0.363281Z" fill="#00004F"/>
<path d="M96.9233 7.55894H86.6254C87.0232 9.29888 88.5075 10.449 90.4508 10.449C91.8891 10.449 93.1285 9.81497 93.7712 8.90076H96.8009C95.8063 11.26 93.358 12.823 90.4049 12.823C86.5489 12.823 83.6875 10.1246 83.6875 6.54151C83.6875 2.97315 86.5489 0.26001 90.3283 0.26001C94.1384 0.26001 96.9845 2.9584 96.9845 6.55625C96.9998 6.83641 96.9692 7.27877 96.9233 7.55894ZM86.656 5.40612H94.0466C93.6029 3.75465 92.1492 2.64875 90.3283 2.64875C88.5228 2.64875 87.115 3.75465 86.656 5.40612Z" fill="#00004F"/>
</svg>
