<svg width="44" height="33" viewBox="0 0 44 33" fill="none" xmlns="http://www.w3.org/2000/svg">
<path d="M2.29053 14.0806C1.08797 14.0806 0.113108 15.0555 0.113108 16.2581C0.113108 17.4606 1.08797 18.4355 2.29053 18.4355V14.0806ZM43.0237 17.7977C43.8741 16.9474 43.8741 15.5687 43.0237 14.7184L29.1667 0.861376C28.3164 0.0110416 26.9377 0.0110416 26.0874 0.861376C25.2371 1.71171 25.2371 3.09038 26.0874 3.94071L38.4047 16.2581L26.0874 28.5754C25.2371 29.4257 25.2371 30.8044 26.0874 31.6547C26.9377 32.5051 28.3164 32.5051 29.1667 31.6547L43.0237 17.7977ZM2.29053 18.4355H41.4841V14.0806H2.29053V18.4355Z" fill="#00004F"/>
</svg>
