<svg width="34" height="13" viewBox="0 0 34 13" fill="none" xmlns="http://www.w3.org/2000/svg">
<path d="M2.43552 4.54414C3.64255 4.54414 4.62104 3.56564 4.62104 2.35862C4.62104 1.15159 3.64255 0.173095 2.43552 0.173095C1.22849 0.173095 0.25 1.15159 0.25 2.35862C0.25 3.56564 1.22849 4.54414 2.43552 4.54414Z" fill="#23CB8E"/>
<path d="M31.7842 4.54393C32.9912 4.54393 33.9697 3.56544 33.9697 2.35841C33.9697 1.15138 32.9912 0.17289 31.7842 0.17289C30.5771 0.17289 29.5986 1.15138 29.5986 2.35841C29.5986 3.56544 30.5771 4.54393 31.7842 4.54393Z" fill="#23CB8E"/>
<path d="M21.4809 6.41721C21.4809 8.85251 19.5451 10.7883 17.1098 10.7883C14.6745 10.7883 12.7388 8.85251 12.7388 6.41721" stroke="#23CB8E" stroke-width="3" stroke-linecap="round"/>
</svg>
