<svg width="61" height="61" viewBox="0 0 61 61" fill="none" xmlns="http://www.w3.org/2000/svg">
<circle cx="30.645" cy="30.2258" r="30" fill="#FCE8FF"/>
<path d="M17.5455 32.8729C18.5951 32.8729 19.4459 32.0221 19.4459 30.9725C19.4459 29.9229 18.5951 29.072 17.5455 29.072C16.4959 29.072 15.645 29.9229 15.645 30.9725C15.645 32.0221 16.4959 32.8729 17.5455 32.8729Z" fill="#A237F6"/>
<path d="M43.066 32.8727C44.1156 32.8727 44.9664 32.0218 44.9664 30.9722C44.9664 29.9226 44.1156 29.0718 43.066 29.0718C42.0164 29.0718 41.1655 29.9226 41.1655 30.9722C41.1655 32.0218 42.0164 32.8727 43.066 32.8727Z" fill="#A237F6"/>
<path d="M34.1067 34.5017C34.1067 36.6194 32.4234 38.3026 30.3058 38.3026C28.1881 38.3026 26.5049 36.6194 26.5049 34.5017" stroke="#A237F6" stroke-width="2.6129" stroke-linecap="round"/>
</svg>
