<svg width="167" height="93" viewBox="0 0 167 93" fill="none" xmlns="http://www.w3.org/2000/svg">
<path d="M0.242014 7.15322C0.242014 8.35577 1.21688 9.33064 2.41943 9.33064C3.62199 9.33064 4.59685 8.35577 4.59685 7.15322H0.242014ZM4.59685 20.9435C4.59685 19.741 3.62199 18.7661 2.41943 18.7661C1.21688 18.7661 0.242014 19.741 0.242014 20.9435H4.59685ZM0.242014 34.7339C0.242014 35.9364 1.21688 36.9113 2.41943 36.9113C3.62199 36.9113 4.59685 35.9364 4.59685 34.7339H0.242014ZM4.59685 48.5242C4.59685 47.3216 3.62199 46.3468 2.41943 46.3468C1.21688 46.3468 0.242014 47.3216 0.242014 48.5242H4.59685ZM0.946533 62.6411C1.17991 63.8208 2.32543 64.5879 3.50512 64.3546C4.68482 64.1212 5.45196 62.9757 5.21858 61.796L0.946533 62.6411ZM10.0968 73.5649C9.42784 72.5657 8.07542 72.2979 7.07614 72.9669C6.07685 73.6359 5.80911 74.9883 6.47811 75.9876L10.0968 73.5649ZM16.6899 86.1994C17.6892 86.8684 19.0416 86.6006 19.7106 85.6014C20.3796 84.6021 20.1118 83.2497 19.1126 82.5807L16.6899 86.1994ZM30.8815 87.4589C29.7018 87.2255 28.5563 87.9927 28.3229 89.1724C28.0896 90.3521 28.8567 91.4976 30.0364 91.731L30.8815 87.4589ZM43.7452 92.4355C44.9478 92.4355 45.9227 91.4606 45.9227 90.2581C45.9227 89.0555 44.9478 88.0806 43.7452 88.0806V92.4355ZM56.7194 88.0806C55.5169 88.0806 54.542 89.0555 54.542 90.2581C54.542 91.4606 55.5169 92.4355 56.7194 92.4355V88.0806ZM69.6936 92.4355C70.8962 92.4355 71.871 91.4606 71.871 90.2581C71.871 89.0555 70.8962 88.0806 69.6936 88.0806V92.4355ZM82.6678 88.0806C81.4652 88.0806 80.4904 89.0555 80.4904 90.2581C80.4904 91.4606 81.4652 92.4355 82.6678 92.4355V88.0806ZM95.642 92.4355C96.8445 92.4355 97.8194 91.4606 97.8194 90.2581C97.8194 89.0555 96.8445 88.0806 95.642 88.0806V92.4355ZM108.616 88.0806C107.414 88.0806 106.439 89.0555 106.439 90.2581C106.439 91.4606 107.414 92.4355 108.616 92.4355V88.0806ZM121.59 92.4355C122.793 92.4355 123.768 91.4606 123.768 90.2581C123.768 89.0555 122.793 88.0806 121.59 88.0806V92.4355ZM134.565 88.0806C133.362 88.0806 132.387 89.0555 132.387 90.2581C132.387 91.4606 133.362 92.4355 134.565 92.4355V88.0806ZM147.539 92.4355C148.741 92.4355 149.716 91.4606 149.716 90.2581C149.716 89.0555 148.741 88.0806 147.539 88.0806V92.4355ZM160.513 88.0806C159.31 88.0806 158.335 89.0555 158.335 90.2581C158.335 91.4606 159.31 92.4355 160.513 92.4355V88.0806ZM0.242014 0.258057V7.15322H4.59685V0.258057H0.242014ZM0.242014 20.9435V34.7339H4.59685V20.9435H0.242014ZM0.242014 48.5242V55.4193H4.59685V48.5242H0.242014ZM0.242014 55.4193C0.242014 57.8887 0.484115 60.3037 0.946533 62.6411L5.21858 61.796C4.81093 59.7354 4.59685 57.6034 4.59685 55.4193H0.242014ZM6.47811 75.9876C9.17996 80.0233 12.6541 83.4975 16.6899 86.1994L19.1126 82.5807C15.5499 80.1955 12.482 77.1276 10.0968 73.5649L6.47811 75.9876ZM30.0364 91.731C32.3738 92.1934 34.7888 92.4355 37.2581 92.4355V88.0806C35.0741 88.0806 32.9421 87.8666 30.8815 87.4589L30.0364 91.731ZM37.2581 92.4355H43.7452V88.0806H37.2581V92.4355ZM56.7194 92.4355H69.6936V88.0806H56.7194V92.4355ZM82.6678 92.4355H95.642V88.0806H82.6678V92.4355ZM108.616 92.4355H121.59V88.0806H108.616V92.4355ZM134.565 92.4355H147.539V88.0806H134.565V92.4355ZM160.513 92.4355H167V88.0806H160.513V92.4355Z" fill="#00004F"/>
</svg>
