<svg width="106" height="279" viewBox="0 0 106 279" fill="none" xmlns="http://www.w3.org/2000/svg">
<path d="M103 43L100.5 43L103 43ZM7.875 0.5C9.25571 0.5 10.375 1.61929 10.375 3C10.375 4.38071 9.25571 5.5 7.875 5.5L7.875 0.5ZM23.625 5.5C22.2443 5.5 21.125 4.38071 21.125 3C21.125 1.61929 22.2443 0.500001 23.625 0.500001L23.625 5.5ZM39.375 0.500002C40.7557 0.500002 41.875 1.61929 41.875 3C41.875 4.38071 40.7557 5.5 39.375 5.5L39.375 0.500002ZM55.125 5.5C53.7443 5.5 52.625 4.38071 52.625 3C52.625 1.61929 53.7443 0.500002 55.125 0.500002L55.125 5.5ZM71.2917 1.3089C72.6461 1.57685 73.5269 2.89208 73.259 4.24654C72.991 5.601 71.6758 6.48179 70.3213 6.21383L71.2917 1.3089ZM83.8338 11.8148C82.6865 11.0467 82.3791 9.49392 83.1472 8.34659C83.9153 7.19926 85.4681 6.89185 86.6154 7.65997L83.8338 11.8148ZM98.34 19.3846C99.1082 20.5319 98.8007 22.0847 97.6534 22.8528C96.5061 23.6209 94.9533 23.3135 94.1852 22.1662L98.34 19.3846ZM99.7862 35.6787C99.5182 34.3242 100.399 33.009 101.753 32.7411C103.108 32.4731 104.423 33.3539 104.691 34.7083L99.7862 35.6787ZM105.5 50.375C105.5 51.7557 104.381 52.875 103 52.875C101.619 52.875 100.5 51.7557 100.5 50.375L105.5 50.375ZM100.5 65.125C100.5 63.7443 101.619 62.625 103 62.625C104.381 62.625 105.5 63.7443 105.5 65.125L100.5 65.125ZM105.5 79.875C105.5 81.2557 104.381 82.375 103 82.375C101.619 82.375 100.5 81.2557 100.5 79.875L105.5 79.875ZM100.5 94.625C100.5 93.2443 101.619 92.125 103 92.125C104.381 92.125 105.5 93.2443 105.5 94.625L100.5 94.625ZM105.5 109.375C105.5 110.756 104.381 111.875 103 111.875C101.619 111.875 100.5 110.756 100.5 109.375L105.5 109.375ZM100.5 124.125C100.5 122.744 101.619 121.625 103 121.625C104.381 121.625 105.5 122.744 105.5 124.125L100.5 124.125ZM105.5 138.875C105.5 140.256 104.381 141.375 103 141.375C101.619 141.375 100.5 140.256 100.5 138.875L105.5 138.875ZM100.5 153.625C100.5 152.244 101.619 151.125 103 151.125C104.381 151.125 105.5 152.244 105.5 153.625L100.5 153.625ZM105.5 168.375C105.5 169.756 104.381 170.875 103 170.875C101.619 170.875 100.5 169.756 100.5 168.375L105.5 168.375ZM100.5 183.125C100.5 181.744 101.619 180.625 103 180.625C104.381 180.625 105.5 181.744 105.5 183.125L100.5 183.125ZM105.5 197.875C105.5 199.256 104.381 200.375 103 200.375C101.619 200.375 100.5 199.256 100.5 197.875L105.5 197.875ZM100.5 212.625C100.5 211.244 101.619 210.125 103 210.125C104.381 210.125 105.5 211.244 105.5 212.625L100.5 212.625ZM105.5 227.375C105.5 228.756 104.381 229.875 103 229.875C101.619 229.875 100.5 228.756 100.5 227.375L105.5 227.375ZM100.5 242.125C100.5 240.744 101.619 239.625 103 239.625C104.381 239.625 105.5 240.744 105.5 242.125L100.5 242.125ZM105.5 256.875C105.5 258.256 104.381 259.375 103 259.375C101.619 259.375 100.5 258.256 100.5 256.875L105.5 256.875ZM100.5 271.625C100.5 270.244 101.619 269.125 103 269.125C104.381 269.125 105.5 270.244 105.5 271.625L100.5 271.625ZM1.09278e-07 0.5L7.875 0.5L7.875 5.5L-1.09278e-07 5.5L1.09278e-07 0.5ZM23.625 0.500001L39.375 0.500002L39.375 5.5L23.625 5.5L23.625 0.500001ZM55.125 0.500002L63 0.500003L63 5.5L55.125 5.5L55.125 0.500002ZM63 0.500003C65.8352 0.500003 68.6079 0.77797 71.2917 1.3089L70.3213 6.21383C67.9554 5.74579 65.5077 5.5 63 5.5L63 0.500003ZM86.6154 7.65997C91.249 10.7621 95.2379 14.751 98.34 19.3846L94.1852 22.1662C91.4467 18.0757 87.9243 14.5533 83.8338 11.8148L86.6154 7.65997ZM104.691 34.7083C105.222 37.3921 105.5 40.1648 105.5 43L100.5 43C100.5 40.4923 100.254 38.0446 99.7862 35.6787L104.691 34.7083ZM105.5 43L105.5 50.375L100.5 50.375L100.5 43L105.5 43ZM105.5 65.125L105.5 79.875L100.5 79.875L100.5 65.125L105.5 65.125ZM105.5 94.625L105.5 109.375L100.5 109.375L100.5 94.625L105.5 94.625ZM105.5 124.125L105.5 138.875L100.5 138.875L100.5 124.125L105.5 124.125ZM105.5 153.625L105.5 168.375L100.5 168.375L100.5 153.625L105.5 153.625ZM105.5 183.125L105.5 197.875L100.5 197.875L100.5 183.125L105.5 183.125ZM105.5 212.625L105.5 227.375L100.5 227.375L100.5 212.625L105.5 212.625ZM105.5 242.125L105.5 256.875L100.5 256.875L100.5 242.125L105.5 242.125ZM105.5 271.625L105.5 279L100.5 279L100.5 271.625L105.5 271.625Z" fill="#00004F"/>
</svg>
