<svg width="90" height="131" viewBox="0 0 90 131" fill="none" xmlns="http://www.w3.org/2000/svg">
<path d="M87 5C88.3807 5 89.5 3.88071 89.5 2.5C89.5 1.11928 88.3807 -3.73211e-06 87 -3.67176e-06L87 5ZM38.8519 22.5L36.3519 22.5L38.8519 22.5ZM3 125.5C1.61929 125.5 0.5 126.619 0.5 128C0.5 129.381 1.61929 130.5 3 130.5L3 125.5ZM38.8519 92.1481L41.3519 92.1481L38.8519 92.1481ZM10.4821 129.77C11.8366 129.502 12.7173 128.187 12.4494 126.832C12.1814 125.478 10.8662 124.597 9.51175 124.865L10.4821 129.77ZM21.5291 119.884C20.3817 120.652 20.0743 122.205 20.8424 123.352C21.6105 124.499 23.1633 124.807 24.3107 124.039L21.5291 119.884ZM34.8906 113.459C35.6587 112.311 35.3513 110.759 34.204 109.991C33.0566 109.222 31.5039 109.53 30.7357 110.677L34.8906 113.459ZM35.717 98.6599C35.449 100.014 36.3298 101.33 37.6843 101.598C39.0387 101.865 40.354 100.985 40.6219 99.6302L35.717 98.6599ZM41.3519 83.4421C41.3519 82.0614 40.2326 80.9421 38.8519 80.9421C37.4711 80.9421 36.3519 82.0614 36.3519 83.4421L41.3519 83.4421ZM36.3519 66.0301C36.3519 67.4108 37.4711 68.5301 38.8519 68.5301C40.2326 68.5301 41.3519 67.4108 41.3519 66.0301L36.3519 66.0301ZM41.3519 48.618C41.3519 47.2373 40.2326 46.118 38.8519 46.118C37.4711 46.118 36.3519 47.2373 36.3519 48.618L41.3519 48.618ZM36.3519 31.206C36.3519 32.5867 37.4711 33.706 38.8519 33.706C40.2326 33.706 41.3519 32.5867 41.3519 31.206L36.3519 31.206ZM42.6788 15.8019C43.2077 14.5265 42.6025 13.0638 41.3271 12.5349C40.0517 12.006 38.589 12.6112 38.0601 13.8866L42.6788 15.8019ZM50.2385 1.7083C48.9631 2.23718 48.3579 3.69984 48.8868 4.97524C49.4157 6.25064 50.8783 6.85581 52.1537 6.32693L50.2385 1.7083ZM65.8889 5C67.2696 5 68.3889 3.88071 68.3889 2.5C68.3889 1.11928 67.2696 -2.80931e-06 65.8889 -2.74896e-06L65.8889 5ZM79.963 -3.36416e-06C78.5823 -3.30381e-06 77.463 1.11928 77.463 2.5C77.463 3.88071 78.5823 5 79.963 5L79.963 -3.36416e-06ZM3 130.5C5.55814 130.5 8.06018 130.249 10.4821 129.77L9.51175 124.865C7.40769 125.281 5.23062 125.5 3 125.5L3 130.5ZM24.3107 124.039C28.4919 121.239 32.0913 117.64 34.8906 113.459L30.7357 110.677C28.3001 114.315 25.1672 117.448 21.5291 119.884L24.3107 124.039ZM40.6219 99.6302C41.101 97.2083 41.3519 94.7063 41.3519 92.1481L36.3519 92.1481C36.3519 94.3788 36.1332 96.5558 35.717 98.6599L40.6219 99.6302ZM41.3519 92.1481L41.3519 83.4421L36.3519 83.4421L36.3519 92.1481L41.3519 92.1481ZM41.3519 66.0301L41.3519 48.618L36.3519 48.618L36.3519 66.0301L41.3519 66.0301ZM41.3519 31.206L41.3519 22.5L36.3519 22.5L36.3519 31.206L41.3519 31.206ZM41.3519 22.5C41.3519 20.1225 41.8246 17.8618 42.6788 15.8019L38.0601 13.8866C36.9586 16.543 36.3519 19.4538 36.3519 22.5L41.3519 22.5ZM52.1537 6.32693C54.2137 5.47271 56.4744 5 58.8519 5L58.8519 -2.44136e-06C55.8057 -2.30821e-06 52.8949 0.606733 50.2385 1.7083L52.1537 6.32693ZM58.8519 5L65.8889 5L65.8889 -2.74896e-06L58.8519 -2.44136e-06L58.8519 5ZM79.963 5L87 5L87 -3.67176e-06L79.963 -3.36416e-06L79.963 5Z" fill="white"/>
</svg>
