<svg width="106" height="279" viewBox="0 0 106 279" fill="none" xmlns="http://www.w3.org/2000/svg">
<path d="M103 236L100.5 236L103 236ZM7.875 278.5C9.25571 278.5 10.375 277.381 10.375 276C10.375 274.619 9.25571 273.5 7.875 273.5L7.875 278.5ZM23.625 273.5C22.2443 273.5 21.125 274.619 21.125 276C21.125 277.381 22.2443 278.5 23.625 278.5L23.625 273.5ZM39.375 278.5C40.7557 278.5 41.875 277.381 41.875 276C41.875 274.619 40.7557 273.5 39.375 273.5L39.375 278.5ZM55.125 273.5C53.7443 273.5 52.625 274.619 52.625 276C52.625 277.381 53.7443 278.5 55.125 278.5L55.125 273.5ZM71.2917 277.691C72.6461 277.423 73.5269 276.108 73.259 274.753C72.991 273.399 71.6758 272.518 70.3213 272.786L71.2917 277.691ZM83.8338 267.185C82.6865 267.953 82.3791 269.506 83.1472 270.653C83.9153 271.801 85.4681 272.108 86.6154 271.34L83.8338 267.185ZM98.34 259.615C99.1082 258.468 98.8007 256.915 97.6534 256.147C96.5061 255.379 94.9533 255.686 94.1852 256.834L98.34 259.615ZM99.7862 243.321C99.5182 244.676 100.399 245.991 101.753 246.259C103.108 246.527 104.423 245.646 104.691 244.292L99.7862 243.321ZM105.5 228.625C105.5 227.244 104.381 226.125 103 226.125C101.619 226.125 100.5 227.244 100.5 228.625L105.5 228.625ZM100.5 213.875C100.5 215.256 101.619 216.375 103 216.375C104.381 216.375 105.5 215.256 105.5 213.875L100.5 213.875ZM105.5 199.125C105.5 197.744 104.381 196.625 103 196.625C101.619 196.625 100.5 197.744 100.5 199.125L105.5 199.125ZM100.5 184.375C100.5 185.756 101.619 186.875 103 186.875C104.381 186.875 105.5 185.756 105.5 184.375L100.5 184.375ZM105.5 169.625C105.5 168.244 104.381 167.125 103 167.125C101.619 167.125 100.5 168.244 100.5 169.625L105.5 169.625ZM100.5 154.875C100.5 156.256 101.619 157.375 103 157.375C104.381 157.375 105.5 156.256 105.5 154.875L100.5 154.875ZM105.5 140.125C105.5 138.744 104.381 137.625 103 137.625C101.619 137.625 100.5 138.744 100.5 140.125L105.5 140.125ZM100.5 125.375C100.5 126.756 101.619 127.875 103 127.875C104.381 127.875 105.5 126.756 105.5 125.375L100.5 125.375ZM105.5 110.625C105.5 109.244 104.381 108.125 103 108.125C101.619 108.125 100.5 109.244 100.5 110.625L105.5 110.625ZM100.5 95.875C100.5 97.2557 101.619 98.375 103 98.375C104.381 98.375 105.5 97.2557 105.5 95.875L100.5 95.875ZM105.5 81.125C105.5 79.7443 104.381 78.625 103 78.625C101.619 78.625 100.5 79.7443 100.5 81.125L105.5 81.125ZM100.5 66.375C100.5 67.7557 101.619 68.875 103 68.875C104.381 68.875 105.5 67.7557 105.5 66.375L100.5 66.375ZM105.5 51.625C105.5 50.2443 104.381 49.125 103 49.125C101.619 49.125 100.5 50.2443 100.5 51.625L105.5 51.625ZM100.5 36.875C100.5 38.2557 101.619 39.375 103 39.375C104.381 39.375 105.5 38.2557 105.5 36.875L100.5 36.875ZM105.5 22.125C105.5 20.7443 104.381 19.625 103 19.625C101.619 19.625 100.5 20.7443 100.5 22.125L105.5 22.125ZM100.5 7.375C100.5 8.7557 101.619 9.875 103 9.875C104.381 9.875 105.5 8.7557 105.5 7.375L100.5 7.375ZM1.09278e-07 278.5L7.875 278.5L7.875 273.5L-1.09278e-07 273.5L1.09278e-07 278.5ZM23.625 278.5L39.375 278.5L39.375 273.5L23.625 273.5L23.625 278.5ZM55.125 278.5L63 278.5L63 273.5L55.125 273.5L55.125 278.5ZM63 278.5C65.8352 278.5 68.6079 278.222 71.2917 277.691L70.3213 272.786C67.9554 273.254 65.5077 273.5 63 273.5L63 278.5ZM86.6154 271.34C91.249 268.238 95.2379 264.249 98.34 259.615L94.1852 256.834C91.4467 260.924 87.9243 264.447 83.8338 267.185L86.6154 271.34ZM104.691 244.292C105.222 241.608 105.5 238.835 105.5 236L100.5 236C100.5 238.508 100.254 240.955 99.7862 243.321L104.691 244.292ZM105.5 236L105.5 228.625L100.5 228.625L100.5 236L105.5 236ZM105.5 213.875L105.5 199.125L100.5 199.125L100.5 213.875L105.5 213.875ZM105.5 184.375L105.5 169.625L100.5 169.625L100.5 184.375L105.5 184.375ZM105.5 154.875L105.5 140.125L100.5 140.125L100.5 154.875L105.5 154.875ZM105.5 125.375L105.5 110.625L100.5 110.625L100.5 125.375L105.5 125.375ZM105.5 95.875L105.5 81.125L100.5 81.125L100.5 95.875L105.5 95.875ZM105.5 66.375L105.5 51.625L100.5 51.625L100.5 66.375L105.5 66.375ZM105.5 36.875L105.5 22.125L100.5 22.125L100.5 36.875L105.5 36.875ZM105.5 7.375L105.5 -4.61155e-06L100.5 -4.393e-06L100.5 7.375L105.5 7.375Z" fill="#00004F"/>
</svg>
